<mxfile host="app.diagrams.net" modified="2023-06-26T16:40:18.313Z" agent="Mozilla/5.0 (Windows NT 10.0; Win64; x64) AppleWebKit/537.36 (KHTML, like Gecko) Chrome/114.0.0.0 Safari/537.36" etag="6P_8rNB7ulOWfc7nD6b9" version="21.5.0" type="device">
  <diagram name="Seite-1" id="8KrhgjUm2OSV7CWdpO_J">
    <mxGraphModel dx="998" dy="653" grid="1" gridSize="10" guides="1" tooltips="1" connect="1" arrows="1" fold="1" page="0" pageScale="1" pageWidth="827" pageHeight="1169" math="0" shadow="0">
      <root>
        <mxCell id="0" />
        <mxCell id="1" parent="0" />
        <mxCell id="HbELugZ7WnRt4IuX17Qe-2" value="" style="endArrow=none;dashed=1;html=1;strokeWidth=4;dashPattern=1 2;endSize=7;rounded=1;strokeColor=#FF6F00;jumpStyle=none;" parent="1" edge="1">
          <mxGeometry width="50" height="50" relative="1" as="geometry">
            <mxPoint x="110" y="294.73" as="sourcePoint" />
            <mxPoint x="260" y="295" as="targetPoint" />
          </mxGeometry>
        </mxCell>
        <mxCell id="HbELugZ7WnRt4IuX17Qe-3" value="" style="ellipse;whiteSpace=wrap;html=1;aspect=fixed;strokeColor=none;fillColor=#FF6F00;opacity=60;" parent="1" vertex="1">
          <mxGeometry x="50" y="270" width="50" height="50" as="geometry" />
        </mxCell>
        <mxCell id="HbELugZ7WnRt4IuX17Qe-4" value="" style="ellipse;whiteSpace=wrap;html=1;aspect=fixed;fillColor=#FF6F00;strokeColor=none;" parent="1" vertex="1">
          <mxGeometry x="65" y="285" width="20" height="20" as="geometry" />
        </mxCell>
        <mxCell id="HbELugZ7WnRt4IuX17Qe-5" value="2010 - 2014&lt;br&gt;&lt;font color=&quot;#757575&quot;&gt;Grundschule &lt;br&gt;Hammerschmiede&lt;/font&gt;" style="text;html=1;align=center;verticalAlign=middle;resizable=0;points=[];autosize=1;strokeColor=none;fillColor=none;" parent="1" vertex="1">
          <mxGeometry x="15" y="320" width="120" height="60" as="geometry" />
        </mxCell>
        <mxCell id="HbELugZ7WnRt4IuX17Qe-6" value="" style="endArrow=none;dashed=1;html=1;strokeWidth=4;dashPattern=1 2;endSize=7;rounded=1;strokeColor=#FF6F00;jumpStyle=none;" parent="1" edge="1">
          <mxGeometry width="50" height="50" relative="1" as="geometry">
            <mxPoint x="163" y="294" as="sourcePoint" />
            <mxPoint x="210" y="380" as="targetPoint" />
          </mxGeometry>
        </mxCell>
        <mxCell id="HbELugZ7WnRt4IuX17Qe-7" value="" style="ellipse;whiteSpace=wrap;html=1;aspect=fixed;strokeColor=none;fillColor=#FF6F00;opacity=60;" parent="1" vertex="1">
          <mxGeometry x="210" y="390" width="50" height="50" as="geometry" />
        </mxCell>
        <mxCell id="HbELugZ7WnRt4IuX17Qe-8" value="" style="ellipse;whiteSpace=wrap;html=1;aspect=fixed;fillColor=#FF6F00;strokeColor=none;" parent="1" vertex="1">
          <mxGeometry x="225" y="405" width="20" height="20" as="geometry" />
        </mxCell>
        <mxCell id="HbELugZ7WnRt4IuX17Qe-9" value="seit 2014&lt;br&gt;&lt;font color=&quot;#757575&quot;&gt;Abenteuerspielplatz &lt;br&gt;Hammerschmiede &lt;br&gt;(Ehrenamtlich)&lt;/font&gt;" style="text;html=1;align=center;verticalAlign=middle;resizable=0;points=[];autosize=1;strokeColor=none;fillColor=none;" parent="1" vertex="1">
          <mxGeometry x="170" y="440" width="130" height="70" as="geometry" />
        </mxCell>
        <mxCell id="HbELugZ7WnRt4IuX17Qe-10" value="" style="ellipse;whiteSpace=wrap;html=1;aspect=fixed;strokeColor=none;fillColor=#FF6F00;opacity=60;" parent="1" vertex="1">
          <mxGeometry x="265" y="270" width="50" height="50" as="geometry" />
        </mxCell>
        <mxCell id="HbELugZ7WnRt4IuX17Qe-11" value="" style="ellipse;whiteSpace=wrap;html=1;aspect=fixed;fillColor=#FF6F00;strokeColor=none;" parent="1" vertex="1">
          <mxGeometry x="280" y="285" width="20" height="20" as="geometry" />
        </mxCell>
        <mxCell id="HbELugZ7WnRt4IuX17Qe-12" value="2014 - 2020&lt;br&gt;&lt;font color=&quot;#757575&quot;&gt;Maria-Ward-&lt;br&gt;Realschule Augsburg&lt;br&gt;&lt;/font&gt;" style="text;html=1;align=center;verticalAlign=middle;resizable=0;points=[];autosize=1;strokeColor=none;fillColor=none;" parent="1" vertex="1">
          <mxGeometry x="220" y="320" width="140" height="60" as="geometry" />
        </mxCell>
        <mxCell id="HbELugZ7WnRt4IuX17Qe-14" value="" style="endArrow=none;dashed=1;html=1;strokeWidth=4;dashPattern=1 2;endSize=7;rounded=1;strokeColor=#FF6F00;jumpStyle=none;" parent="1" edge="1">
          <mxGeometry width="50" height="50" relative="1" as="geometry">
            <mxPoint x="320" y="294.73" as="sourcePoint" />
            <mxPoint x="470" y="295" as="targetPoint" />
          </mxGeometry>
        </mxCell>
        <mxCell id="HbELugZ7WnRt4IuX17Qe-15" value="" style="ellipse;whiteSpace=wrap;html=1;aspect=fixed;strokeColor=none;fillColor=#FF6F00;opacity=60;" parent="1" vertex="1">
          <mxGeometry x="475" y="270" width="50" height="50" as="geometry" />
        </mxCell>
        <mxCell id="HbELugZ7WnRt4IuX17Qe-16" value="" style="ellipse;whiteSpace=wrap;html=1;aspect=fixed;fillColor=#FF6F00;strokeColor=none;" parent="1" vertex="1">
          <mxGeometry x="490" y="285" width="20" height="20" as="geometry" />
        </mxCell>
        <mxCell id="HbELugZ7WnRt4IuX17Qe-18" value="2020 - 2023&lt;br&gt;&lt;font color=&quot;#757575&quot;&gt;Ausbildung zum &lt;br&gt;Fachinformatiker fÃ¼r &lt;br&gt;Anwendungsentwicklung&lt;br&gt;&lt;/font&gt;" style="text;html=1;align=center;verticalAlign=middle;resizable=0;points=[];autosize=1;strokeColor=none;fillColor=none;" parent="1" vertex="1">
          <mxGeometry x="420" y="315" width="160" height="70" as="geometry" />
        </mxCell>
        <mxCell id="HbELugZ7WnRt4IuX17Qe-19" value="" style="endArrow=none;dashed=1;html=1;strokeWidth=4;dashPattern=1 2;endSize=7;rounded=1;strokeColor=#FF6F00;jumpStyle=none;" parent="1" edge="1">
          <mxGeometry width="50" height="50" relative="1" as="geometry">
            <mxPoint x="270" y="414.55" as="sourcePoint" />
            <mxPoint x="750" y="415" as="targetPoint" />
          </mxGeometry>
        </mxCell>
        <mxCell id="HbELugZ7WnRt4IuX17Qe-20" value="" style="endArrow=none;dashed=1;html=1;strokeWidth=4;dashPattern=1 2;endSize=7;rounded=1;strokeColor=#FF6F00;jumpStyle=none;" parent="1" edge="1">
          <mxGeometry width="50" height="50" relative="1" as="geometry">
            <mxPoint x="630" y="215" as="sourcePoint" />
            <mxPoint x="567" y="301" as="targetPoint" />
          </mxGeometry>
        </mxCell>
        <mxCell id="HbELugZ7WnRt4IuX17Qe-21" value="" style="ellipse;whiteSpace=wrap;html=1;aspect=fixed;strokeColor=none;fillColor=#FF6F00;opacity=60;" parent="1" vertex="1">
          <mxGeometry x="644" y="173" width="50" height="50" as="geometry" />
        </mxCell>
        <mxCell id="HbELugZ7WnRt4IuX17Qe-22" value="" style="ellipse;whiteSpace=wrap;html=1;aspect=fixed;fillColor=#FF6F00;strokeColor=none;" parent="1" vertex="1">
          <mxGeometry x="659" y="188" width="20" height="20" as="geometry" />
        </mxCell>
        <mxCell id="HbELugZ7WnRt4IuX17Qe-23" value="seit 2023&lt;br&gt;&lt;font color=&quot;#757575&quot;&gt;Projekt &quot;change in&quot; - &lt;br&gt;Mentor (Ehrenamtlich)&lt;br&gt;&lt;/font&gt;" style="text;html=1;align=center;verticalAlign=middle;resizable=0;points=[];autosize=1;strokeColor=none;fillColor=none;" parent="1" vertex="1">
          <mxGeometry x="599" y="223" width="140" height="60" as="geometry" />
        </mxCell>
        <mxCell id="HbELugZ7WnRt4IuX17Qe-25" value="" style="endArrow=none;dashed=1;html=1;strokeWidth=4;dashPattern=1 2;endSize=7;rounded=1;strokeColor=#FF6F00;jumpStyle=none;" parent="1" edge="1">
          <mxGeometry width="50" height="50" relative="1" as="geometry">
            <mxPoint x="533" y="294.52000000000004" as="sourcePoint" />
            <mxPoint x="748" y="295" as="targetPoint" />
          </mxGeometry>
        </mxCell>
        <mxCell id="HbELugZ7WnRt4IuX17Qe-26" value="" style="endArrow=none;dashed=1;html=1;strokeWidth=4;dashPattern=1 2;endSize=7;rounded=1;strokeColor=#FF6F00;jumpStyle=none;" parent="1" edge="1">
          <mxGeometry width="50" height="50" relative="1" as="geometry">
            <mxPoint x="706" y="197" as="sourcePoint" />
            <mxPoint x="750" y="197" as="targetPoint" />
          </mxGeometry>
        </mxCell>
        <mxCell id="a-U58GuK3E_gNOF0acTQ-1" value="" style="ellipse;whiteSpace=wrap;html=1;aspect=fixed;strokeColor=none;fillColor=#FF6F00;opacity=60;" vertex="1" parent="1">
          <mxGeometry x="748" y="270" width="50" height="50" as="geometry" />
        </mxCell>
        <mxCell id="a-U58GuK3E_gNOF0acTQ-2" value="" style="ellipse;whiteSpace=wrap;html=1;aspect=fixed;fillColor=#FF6F00;strokeColor=none;" vertex="1" parent="1">
          <mxGeometry x="763" y="285" width="20" height="20" as="geometry" />
        </mxCell>
        <mxCell id="a-U58GuK3E_gNOF0acTQ-3" value="2023 - heute&lt;br&gt;&lt;font color=&quot;#757575&quot;&gt;Developer SAP S/4 HANA &lt;br&gt;&amp;amp; Cloud&lt;br&gt;&lt;/font&gt;" style="text;html=1;align=center;verticalAlign=middle;resizable=0;points=[];autosize=1;strokeColor=none;fillColor=none;" vertex="1" parent="1">
          <mxGeometry x="693" y="320" width="160" height="60" as="geometry" />
        </mxCell>
      </root>
    </mxGraphModel>
  </diagram>
</mxfile>
